<svg width="17" height="18" viewBox="0 0 17 18" fill="none" xmlns="http://www.w3.org/2000/svg">
<mask id="path-1-outside-1_313_1399" maskUnits="userSpaceOnUse" x="0.0322876" y="0" width="17" height="18" fill="black">
<rect fill="white" x="0.0322876" width="17" height="18"/>
<path d="M16 10.6C16 16.3925 13.6897 17 8.7837 17C3.87771 17 1.03229 15.8591 1.03229 10.0667C2.9358 4.16708 3.86823 1 8.77421 1C14.9678 2.6 14.4516 5.8 16 10.6Z"/>
</mask>
<path d="M16 10.6C16 16.3925 13.6897 17 8.7837 17C3.87771 17 1.03229 15.8591 1.03229 10.0667C2.9358 4.16708 3.86823 1 8.77421 1C14.9678 2.6 14.4516 5.8 16 10.6Z" fill="#EFB647" fill-opacity="0.76"/>
<path d="M16 10.6H16.2495V10.5608L16.2374 10.5234L16 10.6ZM1.03229 10.0667L0.794884 9.99007L0.782832 10.0274V10.0667H1.03229ZM8.77421 1L8.83661 0.758474L8.80591 0.750544H8.77421V1ZM15.7506 10.6C15.7506 13.4779 15.1738 14.9694 14.0838 15.7712C13.5318 16.1773 12.8256 16.4244 11.9409 16.5683C11.0553 16.7124 10.0079 16.7505 8.7837 16.7505V17.2495C10.0125 17.2495 11.0936 17.2117 12.021 17.0608C12.9493 16.9098 13.7406 16.643 14.3794 16.1731C15.671 15.223 16.2495 13.5146 16.2495 10.6H15.7506ZM8.7837 16.7505C6.33488 16.7505 4.47276 16.462 3.21943 15.5071C1.98398 14.5657 1.28174 12.9272 1.28174 10.0667H0.782832C0.782832 12.9986 1.50331 14.8267 2.91706 15.9039C4.31295 16.9675 6.32653 17.2495 8.7837 17.2495V16.7505ZM1.26969 10.1433C2.22707 7.17605 2.9242 4.95546 3.98082 3.46527C4.50304 2.72877 5.10821 2.17942 5.87084 1.81174C6.6354 1.44314 7.57419 1.24946 8.77421 1.24946V0.750544C7.52125 0.750544 6.50373 0.952749 5.65417 1.36233C4.80268 1.77285 4.1359 2.38399 3.57383 3.1767C2.46186 4.74495 1.74102 7.0577 0.794884 9.99007L1.26969 10.1433ZM8.71182 1.24153C11.7605 2.0291 13.1107 3.19455 13.9081 4.71582C14.3136 5.48943 14.5821 6.36627 14.8477 7.36415C15.1115 8.35558 15.3729 9.46836 15.7626 10.6766L16.2374 10.5234C15.853 9.33164 15.5982 8.24442 15.3298 7.23585C15.0631 6.23373 14.7832 5.31058 14.35 4.48418C13.47 2.80545 11.9815 1.5709 8.83661 0.758474L8.71182 1.24153Z" fill="black" mask="url(#path-1-outside-1_313_1399)"/>
<path d="M14.1273 6.45314C14.5468 8.02556 14.6863 9.10964 14.0217 10.0943C11.4993 10.1982 8.02275 6.99796 8.31755 5.2234C8.61234 3.44884 9.86874 1.32547 11.5501 2.05634C13.2315 2.78721 13.8186 5.29576 14.1273 6.45314Z" fill="#625219"/>
<path d="M9.15635 9.55338C9.15635 10.1536 8.4931 10.0967 7.67494 10.0967C6.85678 10.0967 6.19353 10.1536 6.19353 9.55338C6.19353 8.95321 6.85678 8.46667 7.67494 8.46667C8.4931 8.46667 9.15635 8.95321 9.15635 9.55338Z" fill="#292222"/>
<path fill-rule="evenodd" clip-rule="evenodd" d="M7.57162 11.3119C7.77526 12.2666 8.3757 13.1454 9.2667 13.6431C10.2289 14.1807 11.4316 14.175 12.3529 13.7C11.4401 14.507 9.74646 14.1746 8.4918 13.476C7.50501 11.8002 7.48234 11.6588 7.38744 11.0669L7.38744 11.0669C7.36404 10.9209 7.33624 10.7476 7.2885 10.5171C7.34654 10.7304 7.43686 11.0107 7.57162 11.3119ZM7.22435 10.6519C7.24104 10.5984 7.25919 10.5418 7.27905 10.4818C7.21976 10.2578 7.19795 10.1162 7.19795 10.1162C7.23067 10.2508 7.25764 10.3704 7.28033 10.478C7.3028 10.4102 7.32745 10.3379 7.35464 10.2608C7.35464 10.2608 7.3326 10.3477 7.28309 10.4911L7.2885 10.5171L7.2822 10.4937C7.26591 10.5407 7.24669 10.5938 7.22435 10.6519ZM7.22435 10.6519C7.14886 10.8479 7.0377 11.1005 6.88359 11.3687C6.60003 12.3262 5.88715 13.1529 4.89296 13.5359C3.83711 13.9428 2.57685 13.7627 1.65994 13.1462C2.54004 14.0862 4.33471 13.9898 5.70482 13.4631C6.88376 11.9139 6.92006 11.7747 7.07197 11.1918C7.10944 11.0481 7.15394 10.8774 7.22435 10.6519Z" fill="#292222"/>
<path d="M0.602861 3.87081L0.976837 5.32976C1.05214 5.62354 1.29604 5.83842 1.59318 5.87277C1.8429 5.90165 2.09185 5.79812 2.25283 5.59845L4.39646 2.93979C4.58994 2.69982 4.66316 2.3833 4.59427 2.08466C4.45014 1.45981 3.76164 1.15239 3.20192 1.46296L1.14836 2.60244C0.701618 2.85032 0.475843 3.37529 0.602861 3.87081Z" fill="#F3C773" stroke="black" stroke-width="0.2"/>
<path d="M15.0983 4.99268L14.2731 6.21351C14.1001 6.46942 13.7927 6.58915 13.4988 6.51504C13.2588 6.45453 13.0641 6.27338 12.9808 6.03304L11.8478 2.76341C11.7471 2.47281 11.7847 2.15044 11.9494 1.89343C12.2923 1.35813 13.0335 1.3044 13.4472 1.78483L15.0185 3.60926C15.3519 3.99631 15.3849 4.56869 15.0983 4.99268Z" fill="#F3C773" stroke="black" stroke-width="0.2"/>
<path d="M5.16128 6.06666C5.16128 6.50849 4.93021 6.86666 4.64516 6.86666C4.36011 6.86666 4.12903 6.50849 4.12903 6.06666C4.12903 5.66666 4.36011 5.26666 4.64516 5.26666C4.93021 5.26666 5.16128 5.62483 5.16128 6.06666Z" fill="#292222"/>
<path d="M11.3548 6.06666C11.3548 6.50849 11.1237 6.86666 10.8387 6.86666C10.5536 6.86666 10.3226 6.50849 10.3226 6.06666C10.3226 5.66666 10.5536 5.26666 10.8387 5.26666C11.1237 5.26666 11.3548 5.62483 11.3548 6.06666Z" fill="#292222"/>
<path fill-rule="evenodd" clip-rule="evenodd" d="M12.8752 12.8528C12.8852 12.7847 12.8923 12.7159 12.8962 12.6464C13.0073 10.7024 10.6752 8.97884 7.68734 8.79662C4.69951 8.61439 2.1874 10.0425 2.07637 11.9865C2.0724 12.056 2.07155 12.1252 2.07374 12.1941C2.35718 10.1256 4.80634 8.62091 7.68734 8.79662C10.5683 8.97232 12.8292 10.7643 12.8752 12.8528Z" fill="#464040"/>
</svg>
