<svg width="33" height="34" viewBox="0 0 33 34" fill="none" xmlns="http://www.w3.org/2000/svg">
<mask id="path-1-outside-1_313_1374" maskUnits="userSpaceOnUse" x="1.06454" y="0" width="32" height="34" fill="black">
<rect fill="white" x="1.06454" width="32" height="34"/>
<path d="M32 20.2C32 31.7849 27.3794 33 17.5674 33C7.7554 33 2.06454 30.7182 2.06454 19.1333C5.87158 7.33416 7.73643 1 17.5484 1C29.9355 4.2 28.9033 10.6 32 20.2Z"/>
</mask>
<path d="M32 20.2C32 31.7849 27.3794 33 17.5674 33C7.7554 33 2.06454 30.7182 2.06454 19.1333C5.87158 7.33416 7.73643 1 17.5484 1C29.9355 4.2 28.9033 10.6 32 20.2Z" fill="#EFB647" fill-opacity="0.76"/>
<path d="M32 20.2H32.2495V20.1608L32.2374 20.1234L32 20.2ZM2.06454 19.1333L1.82714 19.0567L1.81509 19.0941V19.1333H2.06454ZM17.5484 1L17.6108 0.758474L17.5801 0.750544H17.5484V1ZM31.7506 20.2C31.7506 25.9741 30.5963 29.0656 28.3154 30.7434C27.1679 31.5874 25.713 32.0915 23.9219 32.3829C22.1298 32.6744 20.018 32.7505 17.5674 32.7505V33.2495C20.0227 33.2495 22.1681 33.1737 24.002 32.8753C25.8368 32.5769 27.3768 32.0531 28.611 31.1453C31.0935 29.3193 32.2495 26.0108 32.2495 20.2H31.7506ZM17.5674 32.7505C12.6656 32.7505 8.86559 32.1768 6.28766 30.2126C3.72759 28.262 2.314 24.8901 2.314 19.1333H1.81509C1.81509 24.9614 3.24692 28.5229 5.98529 30.6094C8.70578 32.6823 12.6572 33.2495 17.5674 33.2495V32.7505ZM2.30195 19.2099C4.21109 13.2929 5.6172 8.80567 7.75812 5.78626C8.82249 4.28515 10.0636 3.15555 11.6333 2.39878C13.205 1.64108 15.1219 1.24946 17.5484 1.24946V0.750544C15.0689 0.750544 13.0733 1.15069 11.4167 1.94937C9.75811 2.74898 8.45535 3.94037 7.35113 5.49769C5.15487 8.59515 3.72504 13.1746 1.82714 19.0567L2.30195 19.2099ZM17.486 1.24153C23.6315 2.8291 26.401 5.19455 28.0371 8.31582C28.862 9.88943 29.4047 11.6663 29.9364 13.6642C30.4664 15.6556 30.9858 17.8684 31.7626 20.2766L32.2374 20.1234C31.4659 17.7316 30.953 15.5444 30.4185 13.5358C29.8857 11.5337 29.3316 9.71058 28.479 8.08418C26.7603 4.80545 23.8524 2.3709 17.6108 0.758474L17.486 1.24153Z" fill="black" mask="url(#path-1-outside-1_313_1374)"/>
<path d="M28.2547 11.9063C29.0936 15.0511 29.3727 17.2193 28.0434 19.1887C22.9987 19.3964 16.0455 12.9959 16.6351 9.4468C17.2247 5.89768 19.7375 1.65094 23.1002 3.11268C26.463 4.57443 27.6371 9.59153 28.2547 11.9063Z" fill="#625219"/>
<path d="M18.3127 18.1068C18.3127 19.3071 16.9862 19.1935 15.3499 19.1935C13.7136 19.1935 12.3871 19.3071 12.3871 18.1068C12.3871 16.9064 13.7136 15.9333 15.3499 15.9333C16.9862 15.9333 18.3127 16.9064 18.3127 18.1068Z" fill="#292222"/>
<path fill-rule="evenodd" clip-rule="evenodd" d="M15.1433 21.6239C15.5505 23.5333 16.7514 25.2908 18.5334 26.2863C20.4579 27.3614 22.8631 27.3501 24.7058 26.3999C22.8803 28.014 19.4929 27.3493 16.9836 25.9519C15.01 22.6003 14.9647 22.3175 14.7749 21.1339C14.7281 20.8419 14.6725 20.4952 14.577 20.0341C14.6931 20.4608 14.8737 21.0213 15.1433 21.6239ZM14.4487 20.3037C14.4821 20.1968 14.5184 20.0837 14.5581 19.9637C14.4395 19.5157 14.3959 19.2324 14.3959 19.2324C14.4613 19.5015 14.5153 19.7408 14.5607 19.9559C14.6056 19.8203 14.6549 19.6759 14.7093 19.5216C14.7093 19.5216 14.6652 19.6954 14.5662 19.9822L14.577 20.0341L14.5644 19.9873C14.5318 20.0815 14.4934 20.1876 14.4487 20.3037ZM14.4487 20.3037C14.2977 20.6958 14.0754 21.201 13.7672 21.7374C13.2001 23.6525 11.7743 25.3058 9.78591 26.0719C7.67421 26.8855 5.15369 26.5253 3.31987 25.2924C5.08007 27.1724 8.66941 26.9797 11.4096 25.9261C13.7675 22.8279 13.8401 22.5494 14.1439 21.3837L14.144 21.3837C14.2189 21.0962 14.3079 20.7547 14.4487 20.3037Z" fill="#292222"/>
<path d="M9.17603 3.55824L8.87288 2.244C8.71017 1.5386 7.93291 1.19155 7.30104 1.54216L1.65012 4.67773C1.20338 4.92561 0.977604 5.45058 1.10462 5.9461L2.09703 9.81767C2.20881 10.2537 2.57084 10.5727 3.0119 10.6237L3.3518 10.663C3.72247 10.7058 4.092 10.5522 4.33096 10.2558L8.95272 4.52361C9.17114 4.25271 9.25379 3.89538 9.17603 3.55824Z" fill="#F3C773" stroke="black" stroke-width="0.2"/>
<path d="M23.7834 3.15113L24.4929 2.04357C24.8845 1.43243 25.7307 1.37108 26.2031 1.91958L30.4805 6.88618C30.8139 7.27323 30.8469 7.84561 30.5603 8.2696L28.3533 11.5347C28.0982 11.9121 27.6447 12.0887 27.2113 11.9794L26.8703 11.8935C26.5164 11.8042 26.2293 11.537 26.1065 11.1826L23.6674 4.14439C23.5525 3.81262 23.5954 3.44456 23.7834 3.15113Z" fill="#F3C773" stroke="black" stroke-width="0.2"/>
<path d="M10.3226 11.1334C10.3226 12.017 9.86041 12.7334 9.29031 12.7334C8.72021 12.7334 8.25806 12.017 8.25806 11.1334C8.25806 10.3334 8.72021 9.53339 9.29031 9.53339C9.86041 9.53339 10.3226 10.2497 10.3226 11.1334Z" fill="#292222"/>
<path d="M22.7097 11.1334C22.7097 12.017 22.2475 12.7334 21.6774 12.7334C21.1073 12.7334 20.6451 12.017 20.6451 11.1334C20.6451 10.3334 21.1073 9.53339 21.6774 9.53339C22.2475 9.53339 22.7097 10.2497 22.7097 11.1334Z" fill="#292222"/>
<path fill-rule="evenodd" clip-rule="evenodd" d="M25.7504 24.7057C25.7704 24.5694 25.7845 24.4317 25.7925 24.2927C26.0145 20.4049 21.3503 16.9577 15.3747 16.5932C9.399 16.2288 4.37476 19.0851 4.1527 22.973C4.14476 23.112 4.14307 23.2504 4.14746 23.3882C4.71434 19.2513 9.61266 16.2418 15.3747 16.5932C21.1367 16.9446 25.6584 20.5286 25.7504 24.7057Z" fill="#464040"/>
</svg>
